<svg width="79" height="24" viewBox="0 0 79 24" fill="none" xmlns="http://www.w3.org/2000/svg">
<rect x="0.5" y="0.499939" width="78" height="23" rx="11.5" stroke="black"/>
<path d="M19.08 12.5199C19.0334 12.5133 18.9734 12.5133 18.92 12.5199C17.7467 12.4799 16.8134 11.5199 16.8134 10.3399C16.8134 9.13326 17.7867 8.15326 19 8.15326C20.2067 8.15326 21.1867 9.13326 21.1867 10.3399C21.18 11.5199 20.2534 12.4799 19.08 12.5199Z" stroke="black" stroke-linecap="round" stroke-linejoin="round"/>
<path d="M23.4933 16.9199C22.3067 18.0066 20.7333 18.6666 19 18.6666C17.2667 18.6666 15.6933 18.0066 14.5067 16.9199C14.5733 16.2933 14.9733 15.6799 15.6867 15.1999C17.5133 13.9866 20.5 13.9866 22.3133 15.1999C23.0267 15.6799 23.4267 16.2933 23.4933 16.9199Z" stroke="black" stroke-linecap="round" stroke-linejoin="round"/>
<path d="M19 18.6666C22.6819 18.6666 25.6666 15.6818 25.6666 11.9999C25.6666 8.31805 22.6819 5.33328 19 5.33328C15.3181 5.33328 12.3333 8.31805 12.3333 11.9999C12.3333 15.6818 15.3181 18.6666 19 18.6666Z" stroke="black" stroke-linecap="round" stroke-linejoin="round"/>
<path d="M33.248 14.9999V6.04794H33.26L37.808 12.5039L37.316 12.4079L41.852 6.04794H41.876V14.9999H40.724V8.68794L40.796 9.27594L37.52 13.9079H37.496L34.172 9.27594L34.376 8.73594V14.9999H33.248ZM44.5131 17.3879L47.7891 10.0319H48.8211L45.6171 17.3879H44.5131ZM45.7371 15.0359L43.3491 10.0319H44.6091L46.6131 14.4719L45.7371 15.0359ZM55.2717 9.81594L55.2357 10.2479L55.3917 10.0319L58.9437 6.32394H60.4437L56.8557 10.0439L60.6477 14.9999H59.1717L56.0037 10.7879L55.2717 11.4959V14.9999H54.0957V6.32394H55.2717V9.81594ZM64.4722 6.32394C65.3442 6.32394 66.0282 6.50394 66.5242 6.86394C67.0282 7.21594 67.2802 7.76794 67.2802 8.51994C67.2802 8.97594 67.1762 9.37194 66.9682 9.70794C66.7602 10.0439 66.4682 10.3079 66.0922 10.4999C65.7242 10.6919 65.2882 10.7999 64.7842 10.8239L64.6162 10.2239C65.2002 10.2399 65.7242 10.3439 66.1882 10.5359C66.6522 10.7279 67.0202 10.9959 67.2922 11.3399C67.5642 11.6839 67.7002 12.0919 67.7002 12.5639C67.7002 12.9959 67.6202 13.3679 67.4602 13.6799C67.3002 13.9839 67.0842 14.2359 66.8122 14.4359C66.5402 14.6279 66.2322 14.7719 65.8882 14.8679C65.5442 14.9559 65.1882 14.9999 64.8202 14.9999H62.2402V6.32394H64.4722ZM64.7122 10.1279C65.1922 10.1279 65.5402 9.99594 65.7562 9.73194C65.9722 9.45994 66.0802 9.13194 66.0802 8.74794C66.0802 8.29194 65.9402 7.95994 65.6602 7.75194C65.3802 7.54394 65.0042 7.43994 64.5322 7.43994H63.4042V10.1279H64.7122ZM64.7602 13.9199C65.0802 13.9199 65.3722 13.8719 65.6362 13.7759C65.9082 13.6799 66.1202 13.5319 66.2722 13.3319C66.4322 13.1319 66.5122 12.8799 66.5122 12.5759C66.5122 12.2399 66.4202 11.9759 66.2362 11.7839C66.0602 11.5919 65.8322 11.4559 65.5522 11.3759C65.2722 11.2879 64.9842 11.2439 64.6882 11.2439H63.4042V13.9199H64.7602Z" fill="black"/>
</svg>
